<svg width="156" height="202" viewBox="0 0 156 202" fill="none" xmlns="http://www.w3.org/2000/svg">
<path opacity="0.3" d="M36.079 184.425C36.079 187.547 53.3255 190.078 74.5971 190.078C95.8687 190.078 113.115 187.547 113.115 184.425C113.115 181.302 95.8714 178.771 74.5971 178.771C53.3228 178.771 36.079 181.302 36.079 184.425Z" fill="#5E5E5E"/>
<mask id="mask0_2981_11660" style="mask-type:luminance" maskUnits="userSpaceOnUse" x="-1" y="0" width="157" height="202">
<path d="M-0.000961304 0H155.539V202H-0.000961304V0Z" fill="white"/>
</mask>
<g mask="url(#mask0_2981_11660)">
<path d="M76.0107 124.234C76.0107 124.234 75.8582 145.225 86.0242 182.36L90.294 182.998L93.3184 126.734L76.0107 124.234Z" fill="#3F3E3D"/>
</g>
<mask id="mask1_2981_11660" style="mask-type:luminance" maskUnits="userSpaceOnUse" x="-1" y="0" width="157" height="202">
<path d="M-0.000961304 0H155.539V202H-0.000961304V0Z" fill="white"/>
</mask>
<g mask="url(#mask1_2981_11660)">
<path d="M74.9473 124.158C74.9473 124.158 71.9737 144.945 56.3943 180.142L52.0737 180.116L57.8429 116.303L74.9473 124.158Z" fill="#3F3E3D"/>
</g>
<mask id="mask2_2981_11660" style="mask-type:luminance" maskUnits="userSpaceOnUse" x="52" y="116" width="23" height="65">
<path d="M74.9453 124.16C74.9453 124.16 71.9718 144.947 56.3923 180.144L52.0718 180.118L57.841 116.305L74.9453 124.16Z" fill="white"/>
</mask>
<g mask="url(#mask2_2981_11660)">
<path d="M74.9453 124.16C74.9453 124.16 71.9718 144.947 56.3923 180.144L52.0718 180.118L57.841 116.305L74.9453 124.16Z" fill="#3F3E3D"/>
</g>
<mask id="mask3_2981_11660" style="mask-type:luminance" maskUnits="userSpaceOnUse" x="-1" y="0" width="157" height="202">
<path d="M-0.000961304 0H155.539V202H-0.000961304V0Z" fill="white"/>
</mask>
<g mask="url(#mask3_2981_11660)">
<path d="M61.1718 34.2789C61.1718 34.2789 51.387 50.9848 59.6214 59.3504C67.8559 67.7161 69.8383 71.1338 75.023 73.1997C79.9281 75.138 92.3814 76.0052 100.108 64.2219C107.859 52.413 92.5593 42.1855 90.8057 34.738C89.0521 27.2906 61.1718 34.2789 61.1718 34.2789Z" fill="#BFA556"/>
</g>
<mask id="mask4_2981_11660" style="mask-type:luminance" maskUnits="userSpaceOnUse" x="-1" y="0" width="157" height="202">
<path d="M-0.000961304 0H155.539V202H-0.000961304V0Z" fill="white"/>
</mask>
<g mask="url(#mask4_2981_11660)">
<path d="M83.0574 173.842C83.0574 173.842 89.4874 174.224 92.2322 173.842L92.0035 180.32L95.5108 181.442C96.502 181.748 97.3407 182.463 97.8236 183.381L98.5098 184.681H83.6674L83.0574 173.842Z" fill="#2A2518"/>
</g>
<mask id="mask5_2981_11660" style="mask-type:luminance" maskUnits="userSpaceOnUse" x="-1" y="0" width="157" height="202">
<path d="M-0.000961304 0H155.539V202H-0.000961304V0Z" fill="white"/>
</mask>
<g mask="url(#mask5_2981_11660)">
<path d="M60.0547 173.842C60.0547 173.842 53.6247 174.224 50.8799 173.842L49.787 180.295L46.2797 181.417C45.2886 181.723 44.4499 182.437 43.967 183.355L43.2808 184.656H58.1232L60.0547 173.842Z" fill="#2A2518"/>
</g>
<mask id="mask6_2981_11660" style="mask-type:luminance" maskUnits="userSpaceOnUse" x="-1" y="0" width="157" height="202">
<path d="M-0.000961304 0H155.539V202H-0.000961304V0Z" fill="white"/>
</mask>
<g mask="url(#mask6_2981_11660)">
<path d="M97.0327 82.9172C97.0327 82.9172 93.932 120.435 96.0415 135.254C96.0415 135.254 69.6098 140.329 53.3442 132.142C53.3442 132.142 57.6648 98.5518 59.698 89.9821C61.6295 81.8715 62.4682 78.0202 72.4309 76.1838C73.0154 76.0818 72.5326 74.1434 76.4211 74.3475C79.9538 73.9649 81.377 73.9904 82.9527 75.6737C88.8744 76.5154 97.9984 79.321 97.0327 82.9172Z" fill="#2B2B30"/>
</g>
<mask id="mask7_2981_11660" style="mask-type:luminance" maskUnits="userSpaceOnUse" x="-1" y="0" width="157" height="202">
<path d="M-0.000961304 0H155.539V202H-0.000961304V0Z" fill="white"/>
</mask>
<g mask="url(#mask7_2981_11660)">
<path d="M74.4119 71.873L74.5898 75.4948C74.5898 75.4948 72.3533 76.3619 71.6671 76.6425C71.6671 76.6425 73.3953 79.193 76.3435 78.7084C79.2662 78.2238 82.7227 75.6988 82.7227 75.6988L79.9778 74.9847L80.3845 71.873H74.4119Z" fill="#ECBFA4"/>
</g>
<mask id="mask8_2981_11660" style="mask-type:luminance" maskUnits="userSpaceOnUse" x="-1" y="0" width="157" height="202">
<path d="M-0.000961304 0H155.539V202H-0.000961304V0Z" fill="white"/>
</mask>
<g mask="url(#mask8_2981_11660)">
<path d="M41.9327 94.9553C51.2092 82.1773 64.8825 77.8159 69.1776 76.9742C71.9987 76.4131 61.6547 79.8818 58.732 94.9808C56.9021 96.5876 50.2688 100.974 44.0421 104.851C40.3315 104.137 40.179 97.3528 41.9327 94.9553Z" fill="#36363A"/>
</g>
<mask id="mask9_2981_11660" style="mask-type:luminance" maskUnits="userSpaceOnUse" x="-1" y="0" width="157" height="202">
<path d="M-0.000961304 0H155.539V202H-0.000961304V0Z" fill="white"/>
</mask>
<g mask="url(#mask9_2981_11660)">
<path d="M100.769 112.096C100.134 112.224 97.1095 110.693 95.4829 110.234C95.5338 110.872 95.4575 111.612 95.4067 112.402C96.0929 112.504 92.9668 114.009 91.5182 114.57C89.79 115.233 87.4518 116.33 87.7822 117.121C88.138 117.988 91.9248 115.871 92.5094 115.82C92.9414 115.794 87.9855 117.758 88.0109 118.702C88.0109 119.697 92.7889 117.478 93.2718 117.35C94.0851 117.146 89.5866 119.034 89.9679 119.901C90.3745 120.768 94.3647 118.651 94.7459 118.524C95.305 118.319 91.8486 120.054 92.4077 120.589C93.0177 121.151 96.0929 119.926 97.999 118.753C99.9052 117.58 102.599 115.692 103.082 115.335L100.769 112.096Z" fill="#ECBFA4"/>
</g>
<mask id="mask10_2981_11660" style="mask-type:luminance" maskUnits="userSpaceOnUse" x="-1" y="0" width="157" height="202">
<path d="M-0.000961304 0H155.539V202H-0.000961304V0Z" fill="white"/>
</mask>
<g mask="url(#mask10_2981_11660)">
<path d="M100.771 112.095C99.8305 112.656 99.5001 113.906 100.085 114.85C100.644 115.793 101.889 116.125 102.83 115.538C103.77 114.977 104.1 113.727 103.516 112.784C102.957 111.84 101.737 111.534 100.771 112.095Z" fill="#ECBFA4"/>
</g>
<mask id="mask11_2981_11660" style="mask-type:luminance" maskUnits="userSpaceOnUse" x="-1" y="0" width="157" height="202">
<path d="M-0.000961304 0H155.539V202H-0.000961304V0Z" fill="white"/>
</mask>
<g mask="url(#mask11_2981_11660)">
<path d="M97.6946 110.234C97.6946 110.234 99.804 115.258 102.473 117.12C106.31 116.304 118.382 104.011 114.748 99.0627C105.421 86.3357 95.026 78.4036 90.7309 77.5619C87.9098 77.0008 93.2978 86.0551 96.1951 94.8033C96.1951 95.1094 98.9145 96.7672 104.531 102.327C103.133 104.827 100.694 107.122 97.6946 110.234Z" fill="#36363A"/>
</g>
<mask id="mask12_2981_11660" style="mask-type:luminance" maskUnits="userSpaceOnUse" x="-1" y="0" width="157" height="202">
<path d="M-0.000961304 0H155.539V202H-0.000961304V0Z" fill="white"/>
</mask>
<g mask="url(#mask12_2981_11660)">
<path d="M75.7337 78.7597C75.7337 78.7597 82.24 77.0764 82.0875 75.5206C81.9858 74.3729 79.978 74.985 79.978 74.985L80.1305 73.7862C80.1305 73.7862 83.9173 73.5057 84.1461 75.5716C84.324 77.0764 80.6642 77.9691 79.2918 78.3771C77.894 78.8107 75.7337 78.7597 75.7337 78.7597Z" fill="#606160"/>
</g>
<mask id="mask13_2981_11660" style="mask-type:luminance" maskUnits="userSpaceOnUse" x="-1" y="0" width="157" height="202">
<path d="M-0.000961304 0H155.539V202H-0.000961304V0Z" fill="white"/>
</mask>
<g mask="url(#mask13_2981_11660)">
<path d="M78.4809 42.3128C83.2335 40.2469 86.5629 37.3138 89.1298 33.0544C92.7895 26.9587 94.2128 19.7663 93.7553 12.931C94.5432 12.8799 95.331 12.8289 96.1189 12.8544C117.645 12.982 121 40.3999 117.722 40.91C114.469 41.4201 108.521 31.0395 103.998 36.064C100.973 39.4052 102.396 48.5105 102.396 48.5105L74.0078 43.6135C75.5582 43.333 77.083 42.9249 78.4809 42.3128Z" fill="#AB8C38"/>
</g>
<mask id="mask14_2981_11660" style="mask-type:luminance" maskUnits="userSpaceOnUse" x="-1" y="0" width="157" height="202">
<path d="M-0.000961304 0H155.539V202H-0.000961304V0Z" fill="white"/>
</mask>
<g mask="url(#mask14_2981_11660)">
<path d="M59.9533 37.4664C59.9533 37.4664 74.5924 12.7265 96.1189 12.854C117.645 12.9815 121 40.3995 117.722 40.9096C114.469 41.4197 107.53 26.1166 102.6 30.7586C97.6692 35.4005 91.29 51.1371 91.29 51.1371L59.9533 37.4664Z" fill="#D3B146"/>
</g>
<mask id="mask15_2981_11660" style="mask-type:luminance" maskUnits="userSpaceOnUse" x="-1" y="0" width="157" height="202">
<path d="M-0.000961304 0H155.539V202H-0.000961304V0Z" fill="white"/>
</mask>
<g mask="url(#mask15_2981_11660)">
<path d="M66.6104 36.2683C66.6104 36.2683 91.5679 33.9218 96.5493 50.7042C99.777 48.5362 105.648 47.0569 116.398 49.4289C116.398 49.4289 103.97 67.4865 96.4985 62.36C91.5679 76.4898 67.8557 77.3569 59.7229 65.8542C50.4973 52.8211 66.6104 36.2683 66.6104 36.2683Z" fill="#ECBFA4"/>
</g>
<mask id="mask16_2981_11660" style="mask-type:luminance" maskUnits="userSpaceOnUse" x="-1" y="0" width="157" height="202">
<path d="M-0.000961304 0H155.539V202H-0.000961304V0Z" fill="white"/>
</mask>
<g mask="url(#mask16_2981_11660)">
<path d="M77.1576 72.6115C81.9611 71.0302 85.3413 67.8421 87.3745 63.4042C87.4253 63.3022 87.5015 63.2257 87.5524 63.1236C88.7977 61.0577 89.2806 58.3032 89.2806 55.4211C89.3568 53.6103 89.1789 51.7739 88.8231 49.9375C88.4927 47.9226 88.0353 46.0098 87.5524 44.4284C87.3745 43.8418 87.1711 43.2552 86.9424 42.6941C86.7391 41.3678 86.2816 40.1436 85.6462 39.0469C90.4497 41.1383 94.7702 44.6835 96.5493 50.6517C99.777 48.4837 105.648 47.0045 116.398 49.3764C116.398 49.3764 103.97 67.434 96.4731 62.3075C93.347 71.2598 82.7235 74.8815 73.2691 73.4277C74.5907 73.3002 75.8869 73.0196 77.1576 72.6115Z" fill="#E29C7D"/>
</g>
<mask id="mask17_2981_11660" style="mask-type:luminance" maskUnits="userSpaceOnUse" x="-1" y="0" width="157" height="202">
<path d="M-0.000961304 0H155.539V202H-0.000961304V0Z" fill="white"/>
</mask>
<g mask="url(#mask17_2981_11660)">
<path d="M124.788 42.4399C126.033 44.5823 125.372 47.2858 123.288 48.4846C121.204 49.6833 118.536 48.9181 117.265 46.7502C116.02 44.6078 116.68 41.9042 118.764 40.7055C120.848 39.5323 123.542 40.2974 124.788 42.4399Z" fill="#CC9F36"/>
</g>
<mask id="mask18_2981_11660" style="mask-type:luminance" maskUnits="userSpaceOnUse" x="-1" y="0" width="157" height="202">
<path d="M-0.000961304 0H155.539V202H-0.000961304V0Z" fill="white"/>
</mask>
<g mask="url(#mask18_2981_11660)">
<path d="M123.182 43.1555C122.75 40.6815 120.31 40.1969 118.481 41.0896C119.014 40.707 119.624 40.4519 120.31 40.3244C122.75 39.8908 125.038 41.4466 125.444 43.8186C125.851 46.1906 124.199 48.4605 121.759 48.8941C119.319 49.3277 117.032 47.7719 116.625 45.3999V45.3744C117.82 48.8686 123.843 47.1853 123.182 43.1555Z" fill="#997333"/>
</g>
<mask id="mask19_2981_11660" style="mask-type:luminance" maskUnits="userSpaceOnUse" x="-1" y="0" width="157" height="202">
<path d="M-0.000961304 0H155.539V202H-0.000961304V0Z" fill="white"/>
</mask>
<g mask="url(#mask19_2981_11660)">
<path d="M77.8203 63.3301L68.1372 64.1972C68.8742 65.9316 71.0091 67.1303 72.9406 67.2834C75.5838 67.4874 77.2104 65.4725 77.8203 63.3301Z" fill="white"/>
</g>
<mask id="mask20_2981_11660" style="mask-type:luminance" maskUnits="userSpaceOnUse" x="-1" y="0" width="157" height="202">
<path d="M-0.000961304 0H155.539V202H-0.000961304V0Z" fill="white"/>
</mask>
<g mask="url(#mask20_2981_11660)">
<g opacity="0.3">
<mask id="mask21_2981_11660" style="mask-type:luminance" maskUnits="userSpaceOnUse" x="82" y="56" width="10" height="5">
<path d="M82.886 56.0352H91.7812V60.065H82.886V56.0352Z" fill="white"/>
</mask>
<g mask="url(#mask21_2981_11660)">
<path d="M82.9111 57.8974C82.8857 58.9941 84.8427 59.9633 87.3079 60.0398C89.7732 60.1163 91.781 59.2747 91.8064 58.1524C91.8318 57.0302 89.8749 56.0865 87.4096 56.01C84.9443 55.959 82.9366 56.8007 82.9111 57.8974Z" fill="#D14F3C"/>
</g>
</g>
</g>
<mask id="mask22_2981_11660" style="mask-type:luminance" maskUnits="userSpaceOnUse" x="-1" y="0" width="157" height="202">
<path d="M-0.000961304 0H155.539V202H-0.000961304V0Z" fill="white"/>
</mask>
<g mask="url(#mask22_2981_11660)">
<g opacity="0.3">
<mask id="mask23_2981_11660" style="mask-type:luminance" maskUnits="userSpaceOnUse" x="57" y="54" width="10" height="5">
<path d="M57.5012 54.6289H66.3711V58.6842H57.5012V54.6289Z" fill="white"/>
</mask>
<g mask="url(#mask23_2981_11660)">
<path d="M57.4749 56.3647C57.424 57.4615 59.3556 58.5072 61.7954 58.6857C64.2353 58.8642 66.2939 58.0991 66.3447 57.0024C66.3956 55.9057 64.464 54.8599 62.0242 54.6814C59.5843 54.4774 57.5511 55.2425 57.4749 56.3647Z" fill="#D14F3C"/>
</g>
</g>
</g>
<mask id="mask24_2981_11660" style="mask-type:luminance" maskUnits="userSpaceOnUse" x="-1" y="0" width="157" height="202">
<path d="M-0.000961304 0H155.539V202H-0.000961304V0Z" fill="white"/>
</mask>
<g mask="url(#mask24_2981_11660)">
<path d="M114.289 50.4731C110.223 49.9885 100.997 49.7079 98.3538 53.3297C97.7693 54.1458 97.2864 55.0895 97.3626 56.1352C97.4135 56.7983 97.6676 57.487 98.1759 57.9206C99.9042 59.5529 99.0655 60.216 97.0323 60.3435C99.4213 60.5731 100.235 59.4509 98.5063 57.5635C97.5914 56.5943 97.9472 55.0385 98.7096 54.0693C99.1417 53.4317 99.65 52.9471 100.336 52.59C101.709 51.8504 103.259 51.5188 104.784 51.2382C107.91 50.7026 111.112 50.5496 114.289 50.4731Z" fill="#AC675E"/>
</g>
<mask id="mask25_2981_11660" style="mask-type:luminance" maskUnits="userSpaceOnUse" x="-1" y="0" width="157" height="202">
<path d="M-0.000961304 0H155.539V202H-0.000961304V0Z" fill="white"/>
</mask>
<g mask="url(#mask25_2981_11660)">
<path d="M121.888 44.1746C122.193 44.7102 122.04 45.3989 121.506 45.7049C120.973 46.011 120.312 45.8069 120.007 45.2713C119.702 44.7357 119.854 44.0471 120.388 43.741C120.896 43.4605 121.583 43.639 121.888 44.1746Z" fill="#161A19"/>
</g>
<mask id="mask26_2981_11660" style="mask-type:luminance" maskUnits="userSpaceOnUse" x="-1" y="0" width="157" height="202">
<path d="M-0.000961304 0H155.539V202H-0.000961304V0Z" fill="white"/>
</mask>
<g mask="url(#mask26_2981_11660)">
<path d="M122.777 48.792L123.285 48.4859L121.074 44.6602L120.54 44.9662L122.777 48.792Z" fill="#161A19"/>
</g>
<mask id="mask27_2981_11660" style="mask-type:luminance" maskUnits="userSpaceOnUse" x="-1" y="0" width="157" height="202">
<path d="M-0.000961304 0H155.539V202H-0.000961304V0Z" fill="white"/>
</mask>
<g mask="url(#mask27_2981_11660)">
<path d="M89.2812 49.6837C89.2812 49.6837 83.2071 39.6857 74.8963 36.3956C66.5856 33.1054 77.9207 43.5625 81.5805 45.4499C84.6557 47.0312 89.2812 49.6837 89.2812 49.6837Z" fill="#CCB259"/>
</g>
<mask id="mask28_2981_11660" style="mask-type:luminance" maskUnits="userSpaceOnUse" x="-1" y="0" width="157" height="202">
<path d="M-0.000961304 0H155.539V202H-0.000961304V0Z" fill="white"/>
</mask>
<g mask="url(#mask28_2981_11660)">
<path d="M79.1113 46.7015C79.1113 46.7015 73.3675 29.7151 62.8711 34.5611C60.2025 35.7853 63.3794 40.6568 68.437 42.4931C72.7067 44.049 79.1113 46.7015 79.1113 46.7015Z" fill="#CCB259"/>
</g>
<mask id="mask29_2981_11660" style="mask-type:luminance" maskUnits="userSpaceOnUse" x="-1" y="0" width="157" height="202">
<path d="M-0.000961304 0H155.539V202H-0.000961304V0Z" fill="white"/>
</mask>
<g mask="url(#mask29_2981_11660)">
<path d="M75.9375 50.958C75.9375 50.958 77.132 53.9166 79.6735 54.5032C82.5962 55.1663 84.5024 53.2789 84.5024 53.2789C84.5024 53.2789 85.2394 49.9888 81.3763 48.8155C77.3099 47.5658 75.9375 50.958 75.9375 50.958Z" fill="white"/>
</g>
<mask id="mask30_2981_11660" style="mask-type:luminance" maskUnits="userSpaceOnUse" x="-1" y="0" width="157" height="202">
<path d="M-0.000961304 0H155.539V202H-0.000961304V0Z" fill="white"/>
</mask>
<g mask="url(#mask30_2981_11660)">
<path d="M80.9951 50.0419C83.3587 50.756 84.172 52.1588 84.4515 53.3065C84.477 53.281 84.5024 53.2555 84.5024 53.2555C84.5024 53.2555 85.2394 49.9653 81.3763 48.7921C77.3099 47.5424 75.9375 50.9345 75.9375 50.9345C75.9375 50.9345 75.9375 50.9345 75.9375 50.96C76.8779 50.0929 78.479 49.2767 80.9951 50.0419Z" fill="#2B1D17"/>
</g>
<mask id="mask31_2981_11660" style="mask-type:luminance" maskUnits="userSpaceOnUse" x="75" y="48" width="10" height="7">
<path d="M81.3802 48.8157C85.2433 49.9889 84.5063 53.2791 84.5063 53.2791C84.5063 53.2791 82.6256 55.192 79.6774 54.5033C77.1359 53.9167 75.9414 50.9581 75.9414 50.9581C75.9414 50.9581 76.9072 48.5352 79.6774 48.5352C80.1857 48.5352 80.7449 48.6117 81.3802 48.8157Z" fill="white"/>
</mask>
<g mask="url(#mask31_2981_11660)">
<path d="M77.6669 53.3304C77.6669 53.3304 77.3111 49.9892 79.4205 50.4738C81.5299 50.9584 80.0813 53.968 80.0813 53.968C80.0813 53.968 79.6492 54.9117 78.836 54.7332C77.7431 54.4526 77.6669 53.3304 77.6669 53.3304Z" fill="#27292F"/>
</g>
<mask id="mask32_2981_11660" style="mask-type:luminance" maskUnits="userSpaceOnUse" x="-1" y="0" width="157" height="202">
<path d="M-0.000961304 0H155.539V202H-0.000961304V0Z" fill="white"/>
</mask>
<g mask="url(#mask32_2981_11660)">
<path d="M61.1439 49.8094C61.1439 49.8094 62.6434 52.2069 64.9561 52.3344C67.6247 52.4619 68.9717 50.498 68.9717 50.498C68.9717 50.498 69.1242 47.514 65.5407 47.0804C61.8047 46.6213 61.1439 49.8094 61.1439 49.8094Z" fill="white"/>
</g>
<mask id="mask33_2981_11660" style="mask-type:luminance" maskUnits="userSpaceOnUse" x="-1" y="0" width="157" height="202">
<path d="M-0.000961304 0H155.539V202H-0.000961304V0Z" fill="white"/>
</mask>
<g mask="url(#mask33_2981_11660)">
<path d="M65.4136 48.2281C67.5739 48.4832 68.5142 49.5799 68.9463 50.5491C68.9717 50.5236 68.9717 50.498 68.9717 50.498C68.9717 50.498 69.1242 47.514 65.5407 47.0804C61.7793 46.6213 61.1185 49.8094 61.1185 49.8094C61.1185 49.8094 61.1185 49.8094 61.1439 49.8349C61.8301 48.9167 63.1008 47.9475 65.4136 48.2281Z" fill="#2B1D17"/>
</g>
<mask id="mask34_2981_11660" style="mask-type:luminance" maskUnits="userSpaceOnUse" x="61" y="47" width="9" height="6">
<path d="M65.5704 47.0823C69.1285 47.5158 69.0014 50.4999 69.0014 50.4999C69.0014 50.4999 67.6544 52.4638 64.9858 52.3363C62.673 52.2343 61.1736 49.8113 61.1736 49.8113C61.1736 49.8113 61.7581 47.0312 64.8842 47.0312C65.0875 47.0313 65.3162 47.0568 65.5704 47.0823Z" fill="white"/>
</mask>
<g mask="url(#mask34_2981_11660)">
<path d="M62.9791 51.6226C62.9791 51.6226 62.5217 48.7151 64.4532 48.8171C66.3593 48.9191 65.3173 51.8012 65.3173 51.8012C65.3173 51.8012 64.9869 52.5918 64.2753 52.5663C63.2587 52.5153 62.9791 51.6226 62.9791 51.6226Z" fill="#27292F"/>
</g>
<mask id="mask35_2981_11660" style="mask-type:luminance" maskUnits="userSpaceOnUse" x="-1" y="0" width="157" height="202">
<path d="M-0.000961304 0H155.539V202H-0.000961304V0Z" fill="white"/>
</mask>
<g mask="url(#mask35_2981_11660)">
<path d="M73.2402 52.8203L71.5628 57.5132C71.5628 57.5132 68.4114 56.7481 68.0302 57.7683C67.6489 58.7885 72.1728 59.6047 72.1728 59.6047L73.2402 52.8203Z" fill="white"/>
</g>
<mask id="mask36_2981_11660" style="mask-type:luminance" maskUnits="userSpaceOnUse" x="-1" y="0" width="157" height="202">
<path d="M-0.000961304 0H155.539V202H-0.000961304V0Z" fill="white"/>
</mask>
<g mask="url(#mask36_2981_11660)">
<path d="M67.3936 58.8633C67.3936 58.8633 68.029 59.6029 69.3506 60.113C70.1893 60.4191 72.6799 60.9292 74.9673 60.8017C75.7806 60.7507 74.4082 62.2044 72.6037 62.434C71.5617 62.5615 68.4356 62.7656 67.4444 59.756C67.2919 59.1183 67.3936 58.8633 67.3936 58.8633Z" fill="#887768"/>
</g>
<mask id="mask37_2981_11660" style="mask-type:luminance" maskUnits="userSpaceOnUse" x="-1" y="0" width="157" height="202">
<path d="M-0.000961304 0H155.539V202H-0.000961304V0Z" fill="white"/>
</mask>
<g mask="url(#mask37_2981_11660)">
<path d="M85.3955 100.286C85.3701 101.357 85.3447 101.893 85.3192 102.99C85.2938 103.806 84.9888 104.188 84.4805 104.163C83.9468 104.137 83.6673 103.729 83.6927 102.888C83.7181 101.791 83.7435 101.255 83.7689 100.159C83.3623 100.133 83.159 100.108 82.7523 100.082C82.7269 101.153 82.7015 101.689 82.6761 102.786C82.6507 104.265 83.3369 105.005 84.506 105.056C85.6496 105.107 86.3104 104.494 86.3613 103.015C86.3867 101.969 86.4121 101.459 86.4375 100.439C86.0054 100.337 85.8021 100.312 85.3955 100.286Z" fill="#D3B146"/>
</g>
<mask id="mask38_2981_11660" style="mask-type:luminance" maskUnits="userSpaceOnUse" x="-1" y="0" width="157" height="202">
<path d="M-0.000961304 0H155.539V202H-0.000961304V0Z" fill="white"/>
</mask>
<g mask="url(#mask38_2981_11660)">
<path d="M81.8594 100.057C81.529 99.9801 81.0461 99.9036 80.5124 99.8526C79.8516 99.8016 79.3687 99.9036 79.0383 100.159C78.7587 100.388 78.6062 100.72 78.6062 101.179C78.5808 101.791 78.9875 102.25 79.3687 102.429V102.454C79.0637 102.582 78.8604 102.888 78.7333 103.347C78.5808 103.908 78.4283 104.52 78.3267 104.724C78.7333 104.75 78.9621 104.75 79.3687 104.75C79.4449 104.622 79.572 104.214 79.6991 103.627C79.8516 103.015 80.0295 102.862 80.4615 102.888C80.5886 102.888 80.6394 102.888 80.7665 102.913C80.7411 103.678 80.7411 104.061 80.7157 104.826C81.1223 104.852 81.3257 104.852 81.7323 104.877C81.7831 102.913 81.8085 101.944 81.8594 100.057ZM80.7919 102.072C80.6395 102.072 80.5632 102.072 80.3853 102.046C79.877 102.021 79.572 101.714 79.5974 101.306C79.5974 100.847 79.9024 100.643 80.3599 100.669C80.614 100.694 80.7411 100.72 80.8174 100.745C80.8174 101.281 80.8174 101.536 80.7919 102.072Z" fill="#D3B146"/>
</g>
<mask id="mask39_2981_11660" style="mask-type:luminance" maskUnits="userSpaceOnUse" x="-1" y="0" width="157" height="202">
<path d="M-0.000961304 0H155.539V202H-0.000961304V0Z" fill="white"/>
</mask>
<g mask="url(#mask39_2981_11660)">
<path d="M77.8945 99.8258C77.6404 99.7493 77.0812 99.6728 76.5729 99.6728C75.963 99.6472 75.5563 99.7238 75.226 99.9023C74.921 100.081 74.6668 100.412 74.6668 100.871C74.6668 101.305 74.8701 101.713 75.3784 101.943C75.3784 101.943 75.3784 101.943 75.3784 101.968C74.8701 102.096 74.4635 102.529 74.4635 103.167C74.4635 103.626 74.6414 103.983 74.8956 104.238C75.226 104.544 75.7597 104.723 76.6492 104.748C77.1575 104.774 77.5133 104.748 77.742 104.723C77.8183 102.708 77.8437 101.739 77.8945 99.8258ZM76.8271 101.662C76.7 101.662 76.6238 101.662 76.4967 101.662C75.963 101.637 75.6834 101.382 75.6834 101.025C75.6834 100.642 75.963 100.463 76.4205 100.463C76.6492 100.463 76.7763 100.489 76.8525 100.514C76.8525 100.974 76.8525 101.203 76.8271 101.662ZM76.7763 103.856C76.6746 103.881 76.5475 103.881 76.395 103.856C75.9376 103.83 75.5309 103.626 75.5309 103.116C75.5309 102.631 75.963 102.427 76.4713 102.453C76.5984 102.453 76.6746 102.453 76.8271 102.453C76.8017 103.014 76.8017 103.294 76.7763 103.856Z" fill="#D3B146"/>
</g>
<mask id="mask40_2981_11660" style="mask-type:luminance" maskUnits="userSpaceOnUse" x="-1" y="0" width="157" height="202">
<path d="M-0.000961304 0H155.539V202H-0.000961304V0Z" fill="white"/>
</mask>
<g mask="url(#mask40_2981_11660)">
<path d="M72.737 103.27C72.8641 103.78 72.9149 104.036 73.0166 104.546C73.4486 104.546 73.652 104.571 74.0586 104.571C73.5503 102.582 73.2961 101.587 72.7878 99.5977C72.2541 99.5977 71.9746 99.5977 71.4663 99.5977C70.8563 101.562 70.5513 102.531 69.9414 104.495C70.3734 104.495 70.6022 104.495 71.0342 104.52C71.1867 104.01 71.2629 103.78 71.4154 103.27C71.9746 103.245 72.2287 103.245 72.737 103.27ZM71.6187 102.403C71.7458 101.995 71.7967 101.791 71.9237 101.358C72 101.077 72.1016 100.694 72.1779 100.414C72.1779 100.414 72.1779 100.414 72.2033 100.414C72.2541 100.694 72.3304 101.077 72.3812 101.358C72.4829 101.766 72.5337 101.995 72.6354 102.403C72.2033 102.429 72.0254 102.429 71.6187 102.403Z" fill="#D3B146"/>
</g>
<mask id="mask41_2981_11660" style="mask-type:luminance" maskUnits="userSpaceOnUse" x="-1" y="0" width="157" height="202">
<path d="M-0.000961304 0H155.539V202H-0.000961304V0Z" fill="white"/>
</mask>
<g mask="url(#mask41_2981_11660)">
<path d="M69.3573 104.469C69.4081 102.531 69.4335 101.562 69.4844 99.5977C69.0015 99.5977 68.7728 99.5977 68.2899 99.6232C67.9086 100.337 67.7053 100.694 67.3241 101.409C67.0445 101.919 66.765 102.505 66.5362 103.066C66.5362 103.066 66.5362 103.066 66.5108 103.066C66.5871 102.429 66.6125 101.791 66.6379 101.077C66.6633 100.516 66.6633 100.235 66.6633 99.6742C66.2821 99.6742 66.1042 99.6997 65.723 99.6997C65.6721 101.587 65.6467 102.531 65.5959 104.444C66.0279 104.444 66.2312 104.444 66.6633 104.444C67.0699 103.704 67.2733 103.347 67.6799 102.607C67.9595 102.097 68.2645 101.46 68.4932 100.898H68.5186C68.4678 101.536 68.4424 102.225 68.4169 103.015C68.3915 103.602 68.3915 103.883 68.3915 104.469C68.7982 104.444 69.0015 104.469 69.3573 104.469Z" fill="#D3B146"/>
</g>
<mask id="mask42_2981_11660" style="mask-type:luminance" maskUnits="userSpaceOnUse" x="-1" y="0" width="157" height="202">
<path d="M-0.000961304 0H155.539V202H-0.000961304V0Z" fill="white"/>
</mask>
<g mask="url(#mask42_2981_11660)">
<path d="M82.5197 111.584C82.5451 110.997 82.5959 110.308 82.5959 109.594C82.5959 109.594 82.5959 109.594 82.6214 109.594C82.7484 110.206 82.9263 110.895 83.0788 111.456C83.2822 112.196 83.3838 112.578 83.5871 113.318C83.8921 113.318 84.07 113.292 84.375 113.292C84.5783 112.553 84.7054 112.196 84.9087 111.456C85.0612 110.895 85.2391 110.232 85.3662 109.62C85.3662 109.62 85.3662 109.62 85.3916 109.62C85.3916 110.257 85.417 110.971 85.417 111.558C85.4424 112.272 85.4424 112.629 85.4678 113.343C85.8491 113.318 86.027 113.318 86.4082 113.292C86.332 111.431 86.3065 110.512 86.2303 108.651C85.6966 108.651 85.417 108.651 84.8833 108.651C84.68 109.288 84.6037 109.594 84.4004 110.232C84.2479 110.767 84.0954 111.38 83.9684 111.941H83.9429C83.8413 111.38 83.6888 110.767 83.5617 110.232C83.3838 109.594 83.3076 109.288 83.1297 108.651C82.5959 108.651 82.3418 108.651 81.8081 108.625C81.6556 110.563 81.6048 111.533 81.4523 113.471C81.8589 113.471 82.0368 113.471 82.4435 113.445C82.4435 112.68 82.4689 112.323 82.5197 111.584Z" fill="#D3B146"/>
</g>
<mask id="mask43_2981_11660" style="mask-type:luminance" maskUnits="userSpaceOnUse" x="-1" y="0" width="157" height="202">
<path d="M-0.000961304 0H155.539V202H-0.000961304V0Z" fill="white"/>
</mask>
<g mask="url(#mask43_2981_11660)">
<path d="M79.7256 108.551C79.6748 110.515 79.6493 111.484 79.5985 113.448C80.0052 113.448 80.2085 113.448 80.6151 113.448C80.6659 111.509 80.6914 110.515 80.7422 108.576C80.3355 108.576 80.1322 108.576 79.7256 108.551Z" fill="#D3B146"/>
</g>
<mask id="mask44_2981_11660" style="mask-type:luminance" maskUnits="userSpaceOnUse" x="-1" y="0" width="157" height="202">
<path d="M-0.000961304 0H155.539V202H-0.000961304V0Z" fill="white"/>
</mask>
<g mask="url(#mask44_2981_11660)">
<path d="M78.7089 113.446C78.7597 111.482 78.7851 110.488 78.8359 108.524C78.3531 108.524 78.1243 108.498 77.6414 108.498C77.2602 109.212 77.0569 109.569 76.6502 110.284C76.3707 110.794 76.0911 111.406 75.8624 111.967C75.8624 111.967 75.8624 111.967 75.837 111.967C75.9132 111.304 75.9386 110.641 75.964 109.901C75.9894 109.314 75.9895 109.034 75.9895 108.473C75.6082 108.473 75.4303 108.447 75.0491 108.447C74.9983 110.437 74.9728 111.406 74.922 113.395C75.3541 113.395 75.5574 113.421 75.9895 113.421C76.3961 112.656 76.5994 112.299 77.0061 111.533C77.2856 110.998 77.5906 110.386 77.8193 109.799H77.8447C77.7939 110.462 77.7685 111.151 77.7431 111.941C77.7177 112.528 77.7177 112.834 77.7177 113.421C78.1497 113.446 78.3276 113.446 78.7089 113.446Z" fill="#D3B146"/>
</g>
<mask id="mask45_2981_11660" style="mask-type:luminance" maskUnits="userSpaceOnUse" x="-1" y="0" width="157" height="202">
<path d="M-0.000961304 0H155.539V202H-0.000961304V0Z" fill="white"/>
</mask>
<g mask="url(#mask45_2981_11660)">
<path d="M73.1963 108.395C73.1455 110.358 73.12 111.353 73.0692 113.317C73.4759 113.343 73.6792 113.343 74.0858 113.368C74.1366 111.404 74.1621 110.409 74.2129 108.42C73.8063 108.42 73.6029 108.395 73.1963 108.395Z" fill="#D3B146"/>
</g>
<mask id="mask46_2981_11660" style="mask-type:luminance" maskUnits="userSpaceOnUse" x="-1" y="0" width="157" height="202">
<path d="M-0.000961304 0H155.539V202H-0.000961304V0Z" fill="white"/>
</mask>
<g mask="url(#mask46_2981_11660)">
<path d="M72.1796 113.292C72.2304 111.328 72.2558 110.334 72.3066 108.37C71.8238 108.344 71.595 108.344 71.1121 108.319C70.7309 109.033 70.5276 109.364 70.1209 110.079C69.8414 110.589 69.5618 111.175 69.3331 111.711C69.3331 111.711 69.3331 111.711 69.3077 111.711C69.3839 111.073 69.4093 110.41 69.4347 109.696C69.4602 109.135 69.4602 108.854 69.4602 108.268C69.0789 108.242 68.901 108.242 68.5198 108.242C68.469 110.181 68.4436 111.15 68.3927 113.088C68.8248 113.114 69.0281 113.139 69.4602 113.165C69.8668 112.451 70.0701 112.068 70.4768 111.328C70.7563 110.818 71.0613 110.206 71.29 109.645H71.3155C71.2646 110.283 71.2392 110.997 71.2138 111.787C71.1884 112.374 71.1884 112.68 71.1884 113.267C71.6204 113.267 71.8238 113.267 72.1796 113.292Z" fill="#D3B146"/>
</g>
<mask id="mask47_2981_11660" style="mask-type:luminance" maskUnits="userSpaceOnUse" x="-1" y="0" width="157" height="202">
<path d="M-0.000961304 0H155.539V202H-0.000961304V0Z" fill="white"/>
</mask>
<g mask="url(#mask47_2981_11660)">
<path d="M63.816 112.451C64.121 112.605 64.7309 112.809 65.3155 112.86C66.1288 112.936 66.7387 112.758 67.1708 112.375C67.6028 111.992 67.8316 111.38 67.857 110.666C67.8824 109.059 66.815 108.116 65.3409 108.039C64.7563 108.014 64.2989 108.116 64.0956 108.218C64.1718 108.549 64.2226 108.728 64.2989 109.059C64.553 108.957 64.858 108.881 65.3409 108.906C66.1796 108.957 66.815 109.493 66.7895 110.513C66.7641 111.508 66.1542 112.043 65.3409 111.967C65.1122 111.941 64.9343 111.916 64.8326 111.865C64.8326 111.482 64.858 111.278 64.858 110.87C65.1376 110.896 65.2646 110.896 65.5442 110.921C65.5442 110.59 65.5442 110.411 65.5696 110.08C64.9088 110.029 64.553 110.029 63.8922 109.978C63.8668 110.998 63.8414 111.482 63.816 112.451Z" fill="#D3B146"/>
</g>
<mask id="mask48_2981_11660" style="mask-type:luminance" maskUnits="userSpaceOnUse" x="-1" y="0" width="157" height="202">
<path d="M-0.000961304 0H155.539V202H-0.000961304V0Z" fill="white"/>
</mask>
<g mask="url(#mask48_2981_11660)">
<path d="M64.016 106L86 106.918" stroke="#655529" stroke-width="0.5" stroke-miterlimit="10" stroke-linecap="round" stroke-linejoin="round"/>
</g>
<mask id="mask49_2981_11660" style="mask-type:luminance" maskUnits="userSpaceOnUse" x="-1" y="0" width="157" height="202">
<path d="M-0.000961304 0H155.539V202H-0.000961304V0Z" fill="white"/>
</mask>
<g mask="url(#mask49_2981_11660)">
<path d="M75.7363 78.7597C75.7363 78.7597 71.3649 78.2241 72.8898 75.7501C73.3981 74.934 74.5672 74.934 74.5672 74.934L74.5164 73.7097C74.5164 73.7097 71.9495 73.4292 71.0091 75.3421C70.0942 77.2039 72.0257 78.3517 73.3727 78.9383C74.7197 79.4994 75.7363 78.7597 75.7363 78.7597Z" fill="#606160"/>
</g>
<mask id="mask50_2981_11660" style="mask-type:luminance" maskUnits="userSpaceOnUse" x="-1" y="0" width="157" height="202">
<path d="M-0.000961304 0H155.539V202H-0.000961304V0Z" fill="white"/>
</mask>
<g mask="url(#mask50_2981_11660)">
<path d="M58.224 40.1458C57.8428 40.2223 57.5632 39.8397 57.7411 39.5081L61.6805 32.4687C61.833 32.1372 62.1125 31.8821 62.4683 31.7801C64.0949 31.219 69.5337 30.0713 82.0125 33.693C94.5929 37.3402 100.921 42.9513 102.853 44.9152C103.259 45.3488 103.463 45.9354 103.387 46.522L103.132 48.4349C103.132 48.4349 99.0152 48.843 96.5499 50.7049C96.5499 50.7049 89.8149 45.0427 78.2003 41.2425C68.8221 38.1564 60.9434 39.5081 58.224 40.1458Z" fill="#947B36"/>
</g>
<mask id="mask51_2981_11660" style="mask-type:luminance" maskUnits="userSpaceOnUse" x="-1" y="0" width="157" height="202">
<path d="M-0.000961304 0H155.539V202H-0.000961304V0Z" fill="white"/>
</mask>
<g mask="url(#mask51_2981_11660)">
<path d="M60.0053 94.854C60.3357 94.2929 60.0307 90.6202 60.1323 88.9113C60.4119 85.7997 61.9876 87.0495 61.9876 89.8295C61.8606 90.5182 64.275 88.0187 65.2662 86.7944C66.4353 85.3406 68.2143 83.4788 68.8497 84.0399C69.5613 84.652 66.359 87.5851 66.1303 88.1462C65.9524 88.5543 69.3834 84.4479 70.2729 84.754C71.2133 85.0856 67.6044 88.9113 67.3502 89.3449C66.8927 90.0591 70.1205 86.3608 70.8067 87.024C71.5183 87.6871 68.2652 90.8242 68.011 91.1303C67.6552 91.6149 70.3746 88.8348 70.705 89.549C71.0608 90.3141 68.9005 92.8391 67.1977 94.2929C65.4949 95.7467 62.8518 97.7106 62.3689 98.0676L60.0053 94.854Z" fill="#ECBFA4"/>
</g>
<mask id="mask52_2981_11660" style="mask-type:luminance" maskUnits="userSpaceOnUse" x="-1" y="0" width="157" height="202">
<path d="M-0.000961304 0H155.539V202H-0.000961304V0Z" fill="white"/>
</mask>
<g mask="url(#mask52_2981_11660)">
<path d="M60.0031 94.8533C60.8418 94.1392 62.1125 94.2157 62.8242 95.0574C63.5358 95.899 63.4595 97.1743 62.6208 97.8884C61.7821 98.6026 60.5114 98.5261 59.7998 97.6844C59.0627 96.8682 59.1644 95.593 60.0031 94.8533Z" fill="#ECBFA4"/>
</g>
<mask id="mask53_2981_11660" style="mask-type:luminance" maskUnits="userSpaceOnUse" x="-1" y="0" width="157" height="202">
<path d="M-0.000961304 0H155.539V202H-0.000961304V0Z" fill="white"/>
</mask>
<g mask="url(#mask53_2981_11660)">
<path d="M59.0684 91.8184C59.0684 91.8184 54.2141 92.711 51.8759 93.8843C48.6736 95.4656 46.4371 98.1181 46.4371 98.1181L59.0684 91.8184Z" fill="#474560"/>
</g>
<mask id="mask54_2981_11660" style="mask-type:luminance" maskUnits="userSpaceOnUse" x="-1" y="0" width="157" height="202">
<path d="M-0.000961304 0H155.539V202H-0.000961304V0Z" fill="white"/>
</mask>
<g mask="url(#mask54_2981_11660)">
<path d="M59.1905 91.334C59.1905 91.334 63.2823 94.9302 64.1973 98.0673C61.4016 100.949 48.5416 108.116 44.0431 104.852C44.7293 103.576 43.7382 100.592 45.9493 98.5009C49.482 95.1342 56.8015 92.5072 59.1905 91.334Z" fill="#36363A"/>
</g>
</svg>
