<svg width="21" height="21" viewBox="0 0 21 21" fill="none" xmlns="http://www.w3.org/2000/svg">
<path d="M12.75 15.75H1.5L1.49775 4.4295L10.0733 10.3665C10.1986 10.4533 10.3475 10.4998 10.5 10.4998C10.6525 10.4998 10.8014 10.4533 10.9267 10.3665L19.5 4.4325V11.25H21V3.75C20.9994 3.35236 20.8411 2.97118 20.5599 2.69C20.2788 2.40883 19.8976 2.25059 19.5 2.25H1.5C1.1023 2.2504 0.720997 2.40856 0.439778 2.68978C0.158559 2.971 0.000397108 3.3523 0 3.75V15.75C0.000595125 16.1476 0.158822 16.5288 0.439997 16.81C0.721173 17.0911 1.10236 17.2494 1.5 17.25H12.75V15.75ZM17.8493 3.75L10.5 8.83798L3.15075 3.75H17.8493Z" fill="#CC950C"/>
<path d="M18 18.75C19.6569 18.75 21.0001 17.4069 21.0001 15.75C21.0001 14.0932 19.6569 12.75 18 12.75C16.3432 12.75 15 14.0932 15 15.75C15 17.4069 16.3432 18.75 18 18.75Z" fill="#CC950C"/>
</svg>
