<svg width="24" height="22" viewBox="0 0 24 22" fill="none" xmlns="http://www.w3.org/2000/svg">
<path d="M14.2791 14.0115H15.4168V16.6724H14.2791V14.0115ZM7.16797 7.02734H8.30578V9.68826H7.16797V7.02734ZM7.16797 11.2667H8.30578V13.8858H7.16797V11.2667Z" fill="#CC950C"/>
<path d="M21.3334 8.53455V17.9841L15.4169 19.8V18.2006H14.2791V19.5974L8.30576 16.5873V15.407H7.168V16.6082L1.42223 18.9339V6.13898L7.168 3.81327V5.45454H8.30576V3.82026L14.2791 6.82347V8.29011H15.4169V6.9841L15.8294 6.85838C15.4999 6.47398 15.227 6.04611 15.0186 5.58724L8.14936 2.172C8.05576 2.12945 7.95385 2.10742 7.85067 2.10742C7.74756 2.10742 7.64558 2.12945 7.552 2.172L0.440898 5.02851C0.309918 5.08136 0.197982 5.17141 0.119433 5.28713C0.0408834 5.40284 -0.000695206 5.53897 8.7942e-06 5.67804V19.9815C0.000591905 20.0959 0.0297687 20.2084 0.0849792 20.3091C0.140197 20.4098 0.21975 20.4957 0.316659 20.5591C0.41357 20.6226 0.524858 20.6617 0.640762 20.673C0.756659 20.6844 0.873608 20.6675 0.981344 20.6241L7.82222 17.8304L14.6418 21.2667C14.743 21.3176 14.8552 21.3439 14.9689 21.3435C15.0393 21.3573 15.1118 21.3573 15.1822 21.3435L22.2934 19.1644C22.4432 19.1183 22.5733 19.0247 22.6634 18.8984C22.7534 18.7721 22.7983 18.62 22.7911 18.466V7.89898C22.3402 8.18098 21.8487 8.39516 21.3334 8.53455Z" fill="#CC950C"/>
<path d="M19.9111 6.98413C21.8747 6.98413 23.4666 5.42067 23.4666 3.49206C23.4666 1.56345 21.8747 0 19.9111 0C17.9474 0 16.3555 1.56345 16.3555 3.49206C16.3555 5.42067 17.9474 6.98413 19.9111 6.98413Z" fill="#CC950C"/>
</svg>
