<svg width="20" height="20" viewBox="0 0 20 20" fill="none" xmlns="http://www.w3.org/2000/svg">
<path d="M0.0835941 9.87718C0.0830467 11.6181 0.541404 13.3176 1.41281 14.8156L0 19.9339L5.279 18.5604C6.73352 19.3473 8.37119 19.7623 10.0376 19.7629H10.0419C15.53 19.7629 19.9976 15.3313 20 9.88511C20.001 7.24574 18.9659 4.76378 17.0859 2.89674C15.2057 1.02992 12.7057 0.00108527 10.0419 0C4.55283 0 0.0857815 4.431 0.0835941 9.87718ZM3.22734 14.5576L3.03024 14.247C2.20164 12.9398 1.7643 11.4291 1.76492 9.87785C1.76672 5.35109 5.47952 1.66821 10.045 1.66821C12.2559 1.66915 14.3337 2.52434 15.8966 4.07597C17.4593 5.62774 18.3192 7.69052 18.3187 9.88444C18.3167 14.4113 14.6037 18.0946 10.0419 18.0946H10.0386C8.55319 18.0938 7.09639 17.698 5.82596 16.95L5.52361 16.7721L2.39094 17.587L3.22734 14.5576Z" fill="#CC950C"/>
<path d="M7.55349 5.74681C7.36712 5.33572 7.17095 5.32742 6.99369 5.3202C6.84851 5.31402 6.6826 5.31446 6.51681 5.31446C6.35086 5.31446 6.08125 5.37642 5.85338 5.62333C5.62525 5.87046 4.98242 6.46767 4.98242 7.68232C4.98242 8.89706 5.87407 10.0709 5.99838 10.2358C6.12281 10.4004 7.71971 12.9728 10.2487 13.9624C12.3507 14.7848 12.7784 14.6212 13.2345 14.5799C13.6907 14.5389 14.7067 13.9829 14.914 13.4064C15.1214 12.8299 15.1214 12.3359 15.0592 12.2326C14.997 12.1298 14.831 12.0679 14.5822 11.9445C14.3334 11.8211 13.1101 11.2238 12.882 11.1414C12.6539 11.0591 12.488 11.0179 12.3222 11.2652C12.1562 11.5119 11.6797 12.0679 11.5345 12.2326C11.3894 12.3977 11.2442 12.4182 10.9954 12.2947C10.7465 12.1708 9.94504 11.9105 8.99438 11.0694C8.25467 10.4151 7.75534 9.60691 7.61016 9.35965C7.46497 9.11284 7.5946 8.97906 7.71941 8.85602C7.83119 8.74543 7.9683 8.56773 8.09282 8.42365C8.2169 8.27943 8.2583 8.17662 8.34127 8.01195C8.4243 7.84713 8.38275 7.70291 8.32067 7.57943C8.2583 7.45595 7.77475 6.23493 7.55349 5.74681Z" fill="#CC950C"/>
</svg>
