<svg width="22" height="22" viewBox="0 0 22 22" fill="none" xmlns="http://www.w3.org/2000/svg">
<path d="M4.14959 5.98054V1.31403V0.80964C4.14959 0.757771 4.19252 0.714844 4.24439 0.714844H4.74878H14.5844C14.6005 0.714844 14.6148 0.718421 14.6273 0.725575L14.9725 0.868665C14.9868 0.874034 14.9976 0.882973 15.0083 0.893704L17.321 3.17598L17.4712 3.32443C17.4891 3.34232 17.4999 3.36737 17.4999 3.39241V3.60346V5.98411C17.4999 6.03598 17.4569 6.07891 17.405 6.07891H16.4017C16.3497 6.07891 16.3068 6.03598 16.3068 5.98411V4.75354H14.1515H13.6472C13.5953 4.75354 13.5523 4.71061 13.5523 4.65874C13.5523 4.65517 13.5523 4.65338 13.5523 4.6498V4.15436V1.91143H5.34618V5.98054C5.34618 6.03241 5.30325 6.07533 5.25138 6.07533H4.2426C4.19252 6.07533 4.14959 6.03241 4.14959 5.98054ZM5.53756 12.8506H16.4428C16.4499 12.8506 16.4571 12.8506 16.4642 12.8524C16.6127 12.856 16.7558 12.8864 16.8863 12.9401C17.0277 12.999 17.1564 13.0849 17.2637 13.1922C17.3692 13.2978 17.4551 13.4266 17.5141 13.5679C17.5678 13.6984 17.5982 13.8397 17.6018 13.9882C17.6036 13.9953 17.6036 14.0025 17.6036 14.0097V15.6624H19.9574C19.9645 15.6624 19.9699 15.6624 19.9771 15.6641C20.079 15.6624 20.1792 15.639 20.2704 15.6015C20.3723 15.5585 20.4636 15.496 20.5405 15.419C20.6174 15.3421 20.68 15.251 20.7229 15.149C20.7605 15.0578 20.7837 14.9576 20.7855 14.8539C20.7837 14.8485 20.7837 14.8413 20.7837 14.836V8.50429C20.7837 8.49712 20.7837 8.49174 20.7855 8.48457C20.7837 8.38263 20.7605 8.28249 20.7229 8.19123C20.68 8.0911 20.6174 7.9981 20.5405 7.92119C20.4636 7.84428 20.3723 7.78168 20.2704 7.73874C20.1792 7.6994 20.079 7.67793 19.9753 7.67614C19.9699 7.67793 19.9628 7.67793 19.9574 7.67793H2.02292C2.01577 7.67793 2.00862 7.67793 2.00325 7.67614C1.9013 7.67793 1.80114 7.70119 1.70992 7.73874C1.60976 7.78168 1.51675 7.84428 1.43983 7.92119C1.36292 7.9981 1.30032 8.08932 1.2574 8.19123C1.21983 8.28249 1.19659 8.38263 1.1948 8.48636C1.19659 8.49174 1.19659 8.49891 1.19659 8.50429V14.8378C1.19659 14.8449 1.19659 14.8521 1.1948 14.8575C1.19659 14.9594 1.21983 15.0596 1.2574 15.1508C1.30032 15.2527 1.36292 15.3439 1.43983 15.4208C1.51675 15.4978 1.60976 15.5603 1.70992 15.6033C1.80114 15.6426 1.9013 15.6641 2.00504 15.6659C2.01041 15.6641 2.01756 15.6641 2.02292 15.6641H4.37675V14.0115C4.37675 14.0043 4.37675 13.9971 4.37854 13.9899C4.38211 13.8415 4.41252 13.6984 4.46618 13.5697C4.52163 13.4337 4.6039 13.3103 4.70406 13.2066C4.70764 13.2012 4.71122 13.1958 4.71659 13.1922C4.82211 13.0867 4.9509 13.0008 5.09219 12.9418C5.22277 12.8882 5.36406 12.8578 5.51431 12.8542C5.52146 12.8506 5.52862 12.8506 5.53756 12.8506ZM17.6018 16.8607V19.9675C17.6018 19.9747 17.6018 19.9818 17.6 19.989C17.5964 20.1375 17.566 20.2806 17.5123 20.4111C17.4533 20.5524 17.3675 20.6812 17.2601 20.7885C17.1546 20.894 17.0259 20.9799 16.8846 21.0389C16.754 21.0926 16.6127 21.123 16.4642 21.1266C16.4571 21.1284 16.4499 21.1284 16.4428 21.1284H5.53756C5.53041 21.1284 5.52325 21.1266 5.5161 21.1266C5.36764 21.123 5.22634 21.0926 5.09577 21.0389C4.95447 20.9799 4.82748 20.894 4.72017 20.7885C4.61285 20.6812 4.52699 20.5542 4.46796 20.4111C4.41431 20.2806 4.3839 20.1393 4.38032 19.9908C4.37854 19.9836 4.37854 19.9765 4.37854 19.9693V16.8607H2.02292C2.01577 16.8607 2.00862 16.8607 2.00146 16.8589C1.73496 16.8553 1.48097 16.8017 1.25024 16.7069C1.00163 16.6049 0.779837 16.4547 0.593821 16.2687C0.407805 16.0826 0.257561 15.8608 0.15561 15.6122C0.0590244 15.3797 0.00536586 15.1275 0.00357723 14.861C0 14.8521 0 14.8449 0 14.8378V8.50429C0 8.49712 0 8.48994 0.00178862 8.48277C0.00536586 8.21633 0.0590244 7.96411 0.153821 7.73159C0.255772 7.48297 0.406016 7.26119 0.592032 7.07517C0.778049 6.88915 0.999835 6.73891 1.24845 6.63696C1.48097 6.54037 1.73317 6.48671 1.99968 6.48492C2.00683 6.48314 2.01399 6.48314 2.02114 6.48314H19.952C19.9592 6.48314 19.9663 6.48314 19.9735 6.48492C20.24 6.4885 20.494 6.54216 20.7247 6.63696C20.9733 6.73891 21.1951 6.88915 21.3811 7.07517C21.5672 7.26119 21.7174 7.48297 21.8194 7.73159C21.9159 7.96411 21.9696 8.21633 21.9714 8.48277C21.9732 8.48994 21.9732 8.49712 21.9732 8.50429V14.8378C21.9732 14.8449 21.9732 14.8521 21.9714 14.8593C21.9678 15.1257 21.9141 15.3779 21.8194 15.6104C21.7174 15.859 21.5672 16.0808 21.3811 16.2669C21.1951 16.4529 20.9733 16.6031 20.7247 16.7051C20.4922 16.8017 20.24 16.8553 19.9735 16.8571C19.9663 16.8589 19.9592 16.8589 19.952 16.8589H17.6018V16.8607ZM16.0028 3.55159L14.7508 2.31565V3.55159H16.0028ZM16.4052 14.0472H5.57333V19.9299H16.4052V14.0472Z" fill="#CC950C"/>
</svg>
