<svg width="21" height="21" viewBox="0 0 21 21" fill="none" xmlns="http://www.w3.org/2000/svg">
<path d="M9.09397 4.9003L5.8049 1.104C5.42573 0.666523 4.7306 0.66847 4.29019 1.10983L1.58549 3.81925C0.780487 4.62518 0.550073 5.82191 1.01576 6.78147C3.79787 12.5415 8.44351 17.1934 14.2 19.9834C15.1586 20.4491 16.3544 20.2187 17.1594 19.4128L19.8894 16.6781C20.3318 16.2357 20.3327 15.5368 19.8914 15.1576L16.0803 11.8863C15.6816 11.5441 15.0623 11.5888 14.6628 11.9893L13.3367 13.3173C13.2688 13.3884 13.1794 13.4354 13.0823 13.4508C12.9852 13.4663 12.8856 13.4494 12.799 13.4029C10.6315 12.1547 8.83333 10.3544 7.58792 8.18521C7.54133 8.09849 7.52441 7.99878 7.53987 7.90156C7.55533 7.80418 7.60229 7.71467 7.67353 7.64665L8.99573 6.32358C9.39621 5.92107 9.44 5.29889 9.09397 4.89933V4.9003Z" stroke="#CC950C" stroke-width="1.4" stroke-linecap="round" stroke-linejoin="round"/>
</svg>
