<svg width="21" height="19" viewBox="0 0 21 19" fill="none" xmlns="http://www.w3.org/2000/svg">
<path d="M17.7188 4.43411C17.7188 4.08434 17.4249 3.80078 17.0625 3.80078H3.9375C3.57506 3.80078 3.28125 4.08434 3.28125 4.43411C3.28125 4.78389 3.57506 5.06745 3.9375 5.06745H17.0625C17.4249 5.06745 17.7188 4.78389 17.7188 4.43411Z" fill="#CC950C"/>
<path d="M4.59375 10.7677C3.86888 10.7677 3.28125 10.2006 3.28125 9.50104C3.28125 8.80146 3.86888 8.23438 4.59375 8.23438C5.31862 8.23438 5.90625 8.80146 5.90625 9.50104C5.90625 10.2006 5.31862 10.7677 4.59375 10.7677Z" fill="#CC950C"/>
<path d="M3.28125 13.2999C3.28125 13.9994 3.86888 14.5665 4.59375 14.5665C5.31862 14.5665 5.90625 13.9994 5.90625 13.2999C5.90625 12.6003 5.31862 12.0332 4.59375 12.0332C3.86888 12.0332 3.28125 12.6003 3.28125 13.2999Z" fill="#CC950C"/>
<path d="M8.53125 10.7677C7.80636 10.7677 7.21875 10.2006 7.21875 9.50104C7.21875 8.80146 7.80636 8.23438 8.53125 8.23438C9.25614 8.23438 9.84375 8.80146 9.84375 9.50104C9.84375 10.2006 9.25614 10.7677 8.53125 10.7677Z" fill="#CC950C"/>
<path d="M7.21875 13.2999C7.21875 13.9994 7.80636 14.5665 8.53125 14.5665C9.25614 14.5665 9.84375 13.9994 9.84375 13.2999C9.84375 12.6003 9.25614 12.0332 8.53125 12.0332C7.80636 12.0332 7.21875 12.6003 7.21875 13.2999Z" fill="#CC950C"/>
<path d="M12.4688 10.7677C11.7439 10.7677 11.1562 10.2006 11.1562 9.50104C11.1562 8.80146 11.7439 8.23438 12.4688 8.23438C13.1936 8.23438 13.7812 8.80146 13.7812 9.50104C13.7812 10.2006 13.1936 10.7677 12.4688 10.7677Z" fill="#CC950C"/>
<path d="M11.1562 13.2999C11.1562 13.9994 11.7439 14.5665 12.4688 14.5665C13.1936 14.5665 13.7812 13.9994 13.7812 13.2999C13.7812 12.6003 13.1936 12.0332 12.4688 12.0332C11.7439 12.0332 11.1562 12.6003 11.1562 13.2999Z" fill="#CC950C"/>
<path d="M16.4062 10.7677C15.6814 10.7677 15.0938 10.2006 15.0938 9.50104C15.0938 8.80146 15.6814 8.23438 16.4062 8.23438C17.1311 8.23438 17.7188 8.80146 17.7188 9.50104C17.7188 10.2006 17.1311 10.7677 16.4062 10.7677Z" fill="#CC950C"/>
<path fill-rule="evenodd" clip-rule="evenodd" d="M17.7188 0.633333V1.26667H19.0312C20.1186 1.26667 21 2.11733 21 3.16667V17.1C21 18.1494 20.1186 19 19.0312 19H1.96875C0.881442 19 0 18.1494 0 17.1V3.16667C0 2.11733 0.881442 1.26667 1.96875 1.26667H3.28125V0.633333C3.28125 0.283553 3.57507 0 3.9375 0C4.29993 0 4.59375 0.283553 4.59375 0.633333V1.26667H16.4062V0.633333C16.4062 0.283553 16.7001 0 17.0625 0C17.4249 0 17.7188 0.283553 17.7188 0.633333ZM1.96875 2.53333C1.60632 2.53333 1.3125 2.81689 1.3125 3.16667V17.1C1.3125 17.4498 1.60632 17.7333 1.96875 17.7333H19.0312C19.3937 17.7333 19.6875 17.4498 19.6875 17.1V3.16667C19.6875 2.81689 19.3937 2.53333 19.0312 2.53333H1.96875Z" fill="#CC950C"/>
</svg>
