<svg width="13" height="13" viewBox="0 0 13 13" fill="none" xmlns="http://www.w3.org/2000/svg">
<path d="M12.2397 11.8434H4.23435L8.21469 7.82656L8.88773 7.15217C9.11236 6.92704 9.11365 6.56093 8.89074 6.33421C8.66768 6.10734 8.3048 6.10603 8.08031 6.33117L3.29484 11.1558L1.35352 11.6342L1.82714 9.67751L10.1213 1.30305C10.2425 1.2121 10.7305 0.925367 11.4519 1.52225C11.4558 1.52543 11.4597 1.52861 11.4637 1.53165C11.529 1.58298 12.0786 2.04004 11.733 2.63997L10.659 3.72399L9.8374 2.9708C9.60331 2.75608 9.24072 2.77343 9.02798 3.00998C8.8151 3.24639 8.83257 3.61222 9.0668 3.82694L10.2927 4.95087C10.519 5.15851 10.8669 5.15012 11.0832 4.93178L12.5903 3.41065C12.6184 3.38231 12.6434 3.35108 12.6651 3.31739C13.4444 2.11046 12.6877 1.03078 12.1734 0.62331C10.9384 -0.394923 9.79528 0.0540419 9.36292 0.434469C9.35304 0.443145 9.34344 0.452255 9.33413 0.461509L0.903256 8.97406C0.829191 9.04896 0.776757 9.14295 0.75183 9.24576L0.0161883 12.2845C0.0151854 12.2886 0.014899 12.2928 0.0140395 12.297C0.0123203 12.3046 0.0113175 12.3122 0.0100282 12.32C0.00458429 12.3503 0.0014326 12.3808 0.00100282 12.4114C0.00100282 12.4148 0 12.4182 0 12.4218L0.000429818 12.4257C0.000573079 12.4598 0.00444106 12.4936 0.010458 12.5267C0.0120339 12.5351 0.0137529 12.5431 0.0156153 12.5513C0.0227783 12.5827 0.0316604 12.6138 0.0439808 12.6436C0.0448404 12.6457 0.0458433 12.6478 0.0467029 12.6501C0.0590233 12.679 0.0746385 12.7068 0.0916865 12.7335C0.0962709 12.7407 0.100855 12.7478 0.105726 12.7546C0.12435 12.7814 0.14455 12.8071 0.167758 12.8305C0.194261 12.8573 0.223343 12.8811 0.25443 12.9023C0.265318 12.9096 0.277495 12.9145 0.288813 12.9211C0.309729 12.9333 0.330501 12.9461 0.352993 12.9555C0.367892 12.9617 0.383651 12.9649 0.399123 12.9699C0.419323 12.9764 0.43895 12.9842 0.460009 12.9886C0.49697 12.9961 0.534791 13 0.572898 13H12.2397C12.5562 13 12.8128 12.741 12.8128 12.4216C12.8128 12.1022 12.5562 11.8434 12.2397 11.8434Z" fill="#CC950C"/>
</svg>
